<svg width="184" height="166" viewBox="0 0 184 166" fill="none" xmlns="http://www.w3.org/2000/svg">
<circle cx="93.5" cy="82.5" r="75.5" fill="#EEC763"/>
<path d="M104.568 110.285L121.851 89.421H106.133L93.5428 106.337V75.8612H93.5705V75.2842C102.1 72.5632 108.274 64.5764 108.274 55.141C108.274 43.4657 98.8126 34 87.137 34C75.4639 34 66 43.4657 66 55.141C66 64.6117 72.2245 72.6262 80.8042 75.317V131H93.5428V113.563L106.208 131H122L104.568 110.285ZM87.1395 63.5888C82.4743 63.5888 78.6933 59.807 78.6933 55.1435C78.6933 50.4774 82.4743 46.6957 87.1395 46.6957C91.8022 46.6957 95.5832 50.4774 95.5832 55.1435C95.5857 59.807 91.8047 63.5888 87.1395 63.5888Z" fill="#5856A2"/>
</svg>
